HIERARCHY
ROOT Hips
{
    OFFSET 11.691316604614258 80.65158081054688 -16.73150634765625
    CHANNELS 6 Xposition Yposition Zposition Zrotation Xrotation Yrotation
    JOINT RightUpLeg
    {
        OFFSET -11.691316604614258 0.0 0.0
        CHANNELS 3 Zrotation Xrotation Yrotation
        JOINT RightLeg
        {
            OFFSET 0.0 -38.82281494140625 0.0
            CHANNELS 3 Zrotation Xrotation Yrotation
            JOINT RightFoot
            {
                OFFSET 0.0 -41.828765869140625 0.0
                CHANNELS 3 Zrotation Xrotation Yrotation
                End Site RightFoot_End
                {
                    OFFSET 0.0 0.0 16.73150634765625
                }
            }
        }
    }
    JOINT LeftUpLeg
    {
        OFFSET 11.691316604614258 0.0 0.0
        CHANNELS 3 Zrotation Xrotation Yrotation
        JOINT LeftLeg
        {
            OFFSET 0.0 -38.82281494140625 0.0
            CHANNELS 3 Zrotation Xrotation Yrotation
            JOINT LeftFoot
            {
                OFFSET 0.0 -41.828765869140625 0.0
                CHANNELS 3 Zrotation Xrotation Yrotation
                End Site LeftFoot_End
                {
                    OFFSET 0.0 0.0 16.73150634765625
                }
            }
        }
    }
    JOINT Spine
    {
        OFFSET 0.0 23.187904357910156 0.0
        CHANNELS 3 Zrotation Xrotation Yrotation
        JOINT Spine3
        {
            OFFSET 0.0 26.17115020751953 0.0
            CHANNELS 3 Zrotation Xrotation Yrotation
            JOINT Neck
            {
                OFFSET 0.0 14.838532447814941 0.0
                CHANNELS 3 Zrotation Xrotation Yrotation
                End Site Head
                {
                    OFFSET 0.0 5.935413360595703 0.0
                }
            }
            JOINT LeftArm
            {
                OFFSET 14.636032104492188 0.0 0.0
                CHANNELS 3 Zrotation Xrotation Yrotation
                JOINT LeftForeArm
                {
                    OFFSET 26.926502227783203 0.0 0.0
                    CHANNELS 3 Zrotation Xrotation Yrotation
                    JOINT LeftHand
                    {
                        OFFSET 23.650402069091797 0.0 0.0
                        CHANNELS 3 Zrotation Xrotation Yrotation
                        End Site LeftWristEndSite
                        {
                            OFFSET 9.460161209106445 0.0 0.0
                        }
                    }
                }
            }
            JOINT RightArm
            {
                OFFSET -14.636032104492188 0.0 0.0
                CHANNELS 3 Zrotation Xrotation Yrotation
                JOINT RightForeArm
                {
                    OFFSET -26.926502227783203 0.0 0.0
                    CHANNELS 3 Zrotation Xrotation Yrotation
                    JOINT RightHand
                    {
                        OFFSET -23.650402069091797 0.0 0.0
                        CHANNELS 3 Zrotation Xrotation Yrotation
                        End Site RightWristEndSite
                        {
                            OFFSET -9.460161209106445 0.0 0.0
                        }
                    }
                }
            }
        }
    }
}
MOTION
Frames: 11
Frame Time: 0.03333333333333333
-0.0 83.9059829711914 0.0 1.0945261522118506 -1.4765565480452567 26.469967192090998 0.05782403833948129 -11.371482837164502 -0.2752631698603504 11.559450270116079 35.4044388787338 -12.240538132409496 -3.975693351829396e-16 -9.939233379573489e-17 -3.876301018033661e-15 12.544765630692025 10.0855844902031 -1.5938640082182194 6.551164212104567 11.562553878635333 -5.754813551552395 0.0 0.0 -7.951386703658794e-16 3.8413428566307917 0.6206337739972395 -0.13146574171845873 -3.5494038609703e-07 7.34528149874714e-08 -23.49912012380039 -13.901650302240778 -5.761622658897149 -24.368100455590604 -6.177410570054974 -54.32481970181939 56.24681030386711 -89.99999899391273 2.8464044245311285e-06 2.1604397509053203e-06 0.0 0.0 0.0 -47.55705864357765 -45.78619601290341 -133.23610039522327 89.99999885614596 -6.029504861976841e-07 7.280298134696234e-07 0.0 0.0 0.0
-0.0 83.9059829711914 0.0 1.3403665784492655 -2.0446733529743986 30.0733712700426 -29.555032855638125 -34.23553043134786 -14.038886073411629 50.88379129317775 65.2392495597591 -31.60009931386605 5.963540027744092e-16 3.1308585145656485e-15 -2.981770013872046e-16 14.219749016322323 8.505198058048833 -1.4630299514999803 1.6712595702536843 12.244021478925719 -5.046809723626146 -1.5902773407317588e-15 -3.1805546814635176e-15 -3.975693351829397e-15 2.191171222446474 -0.6774043411556104 0.11308412639955877 -2.721903234756057e-08 1.7885168348596168e-07 -21.752657118179695 -13.495125282712326 -0.2586435385599218 -27.94823116581551 -5.011096593809916 -66.09859333625347 45.0247856176707 -89.9999994838696 1.3168878791120781e-06 -7.462886386169716e-07 0.0 0.0 0.0 -63.98282874766308 -50.76617607674009 -139.64735838298319 90.00000371934786 2.080537250509525e-08 -1.7008548438903984e-06 0.0 0.0 0.0
-0.0 83.9059829711914 0.0 -1.075091282082847 -5.306515668281654 30.65692462098069 -36.82276912408248 -39.374888964289795 -22.94900751878545 92.77986212043385 77.79916627781824 -69.99605427374964 1.5902773407317584e-15 -5.517382872562698e-33 -3.975693351829396e-16 16.579205383172194 8.547184166650998 -0.9557111845811712 2.6456877293398167 11.882542383708765 -4.991607644681642 1.5902773407317582e-15 -3.578124016646456e-15 1.5902773407317582e-15 -1.5621184206517031 -3.9677863487207183 0.20094370942962722 8.303411891409859e-07 1.1665285155402463e-06 -19.942294577518332 -12.290635505066618 1.8122705381009947 -30.01155260947153 -38.712278975223434 -78.21149636824977 1.2521396112130607 -89.99999858676682 5.523965786054765e-06 -6.624440855955685e-08 3.1805546814635168e-15 1.7655625192200634e-31 6.3611093629270335e-15 -69.19246464880501 -50.650843639688766 -131.9242885666909 89.99999791008555 -7.208433214880954e-08 2.6186320904844537e-06 1.5902773407317584e-15 3.975693351829396e-15 -5.517382872562698e-32
-0.0 83.9059829711914 0.0 -5.031580147605604 -12.181668883781471 31.68443829072655 -34.46453383479629 -41.01369702506443 -26.83766233157447 -174.51609908974052 81.61315081280075 -161.12363722924235 -9.379550883356588e-32 6.758678698109972e-15 1.590277340731758e-15 22.777172700185844 9.120620463041382 -1.1078732683431716 -0.26190260797675724 11.99484874726492 -4.240504894311082 0.0 0.0 -5.565970692561154e-15 -2.3612115690461017 -4.34645052778798 -0.33904512327874686 2.133183552015175e-07 -1.7311703992522622e-06 -22.770643968067148 -10.09295238761739 5.742720908670757 -28.82794284031425 -55.62685646186469 -81.00535749460504 -29.0385294432535 -90.00000101484216 1.9140545716471517e-07 6.279298839046847e-07 -3.1805546814635164e-15 -1.7655625192200634e-31 6.361109362927033e-15 -88.16711161894874 -59.10886793406391 -150.0340623316236 90.00000324416054 -5.81501546702598e-07 2.328686463571865e-06 2.3854160110976376e-15 0.0 0.0
-0.0 83.9059829711914 0.0 -7.123610166011962 -16.346105696855382 30.501480187155195 -30.26605802620242 -41.31451234534243 -27.507860123110174 -164.74891825502812 74.7298034916416 -170.62875423530227 -3.1805546814635168e-15 -8.827812596100317e-32 3.1805546814635168e-15 20.78593513405361 8.308164050128658 0.14714103492218833 3.3516012483964652 13.100384096715452 -3.7989624249027463 6.620859447075238e-32 1.5902773407317584e-15 -4.770832022195275e-15 -4.462776127625342 -5.32103906476708 -1.0843198717916016 1.8492466424205722e-06 -3.1676816608902597e-06 -23.95521490704893 -12.166723042981996 7.84730418326589 -24.580117512752974 -110.1142450912019 -81.76207410549479 -89.44447333474987 -89.99999806254877 -2.8304945791252593e-07 -1.9903505177858712e-06 -1.590277340731758e-15 0.0 0.0 -113.75001817117132 -63.196939288087194 -173.83309594710644 90.00000281846397 -2.6654412107370984e-10 -3.647822388453652e-06 1.1927080055488186e-15 -3.1805546814635164e-15 3.310429723537619e-32
-0.0 83.9059829711914 0.0 -9.310075796265721 -18.444542461493878 30.2062644658947 -28.65078375065599 -42.254724163509344 -28.392403600034896 -88.79681175282686 79.37062499311719 113.96020771468346 -2.2069531490250793e-32 -3.1805546814635164e-15 -7.951386703658791e-16 22.955611561799792 9.793174077128349 -0.11930347310680033 5.471117505210322 11.574113708538864 -3.8403777848585787 -2.551789578560248e-32 3.975693351829396e-16 7.355032700884382e-15 -3.5288854919557098 -4.794604597200741 -1.082480007340055 -1.602116363775259e-06 -1.2713014549638492e-06 -24.930074599600673 -11.888456189480229 6.874332628615664 -25.196449805133984 -125.9795123281769 -74.14406245610076 -102.97534346549098 -90.0000069349271 -1.9025607126136188e-06 2.271353124206723e-06 -4.770832022195274e-15 2.648343778830095e-31 -6.361109362927033e-15 -145.43608018903413 -58.81579447109188 164.19854081910782 89.99999678757885 -1.237388993583647e-06 -3.824887496758657e-06 -5.963540027744095e-16 3.1805546814635164e-15 6.361109362927033e-15
-0.0 83.9059829711914 0.0 -12.335036848980021 -21.364471179061745 29.674321775333183 -24.058305649856717 -38.491908602097176 -25.785615676402156 0.1281738637879192 76.82984592227679 24.936129140859638 -3.1805546814635168e-15 -3.975693351829396e-15 -1.1034765745125397e-31 34.28813637608045 14.516338954357284 -3.3270705627203845 3.7633212436469745 11.46175723006189 -5.179550234437486 -1.1724438604195735e-32 -3.975693351829396e-16 -3.3793393490549868e-15 -4.053435754290267 -5.573579312403615 -1.6550999253259813 -1.164082647885807e-07 6.904072989851742e-07 -28.207510969453356 -9.196129465946598 7.038155702174666 -22.2877026990322 -126.81347040633227 -68.4815397008347 -77.4833968919516 -90.00000488206966 -2.64534073283555e-06 4.701693095933935e-06 0.0 0.0 -6.361109362927033e-15 -150.3471057714766 -60.96082929320513 162.2004808795617 89.99999727697227 -3.322469052666929e-07 8.737033503715982e-07 1.3914926731402886e-15 0.0 0.0
-0.0 83.9059829711914 0.0 -14.358721773905138 -23.508620581676443 28.591920422682442 -20.240115655455647 -35.13090064239881 -23.23968298889992 23.487394585789346 65.25423300701625 2.351657664158375 0.0 0.0 -5.963540027744094e-16 39.964301888278285 17.412618402682146 -5.527572717770797 3.0230178237584164 11.859819852033015 -5.893359919253696 1.5902773407317582e-15 -3.9756933518293955e-16 7.951386703658791e-16 -3.8301799606525107 -5.671766324708259 -1.925087686353224 -1.7276932699429177e-06 -1.7829162329825166e-06 -29.722489630386782 -7.363342411431057 5.6499969522048765 -22.378513761931334 -122.46651208108166 -64.9856143639963 -72.88402105332065 -89.99999770832137 3.319074238640904e-08 1.5786748085862088e-06 3.1805546814635176e-15 -6.3611093629270335e-15 1.2722218725854067e-14 -156.42950833526152 -64.15508560373728 161.39017701891376 90.00000663064121 -1.5535651776516432e-06 -2.7740659174850583e-06 -3.1805546814635164e-15 0.0 0.0
-0.0 83.9059829711914 0.0 -12.883829505132393 -20.246850982537335 27.522440154860192 -18.223008593261095 -29.43454541063159 -16.9380167461435 35.03289606094501 49.91468727058049 -8.908683052246984 0.0 0.0 -3.056314264218848e-15 36.31984243508436 19.593000261938094 -6.570859892351952 4.843850461814069 9.850623056023696 -5.319457901006645 -1.5902773407317588e-15 1.6552148617688095e-32 -1.1927080055488192e-15 -6.223491483991147 -7.6888156888808785 -2.391077126992768 -2.732316160074763e-06 -2.972636342468127e-06 -29.97242531598785 -5.724604266731203 6.777507212384044 -18.67752949324188 -122.31518065822426 -65.24389576117004 -74.2288022296016 -90.0000018780737 -3.121615664548432e-06 2.9784359415817634e-06 -1.5902773407317584e-15 0.0 0.0 -169.37470085209554 -61.25658249560542 152.71379490405167 90.0000051930512 -9.576754730191478e-07 -2.305610568523291e-06 -9.93923337957349e-16 3.1805546814635168e-15 2.758691436281349e-32
-0.0 83.9059829711914 0.0 -8.054525918856584 -11.197148156608245 15.258828681732737 3.812514463751761 -10.610631053682248 -4.953504485417431 18.18562103689932 29.841379526292105 -10.606229713830743 5.17254644302753e-34 -9.939233379573489e-17 5.963540027744093e-16 19.17333330712898 20.960484834448554 -1.1976188870882902 9.819835906482238 12.038579682731525 -5.968289960163628 -1.5902773407317588e-15 -1.6552148617688095e-32 1.1927080055488192e-15 -10.685089214561952 -15.537170688235214 -3.644300557977422 -1.0054977169788455e-07 1.6437605046693554e-06 -22.809191195708234 -3.2478281172984 4.1286913297737025 -14.17689678266061 -136.22667259803862 -66.80413838440715 -90.95508396615655 -89.99999315067507 5.99103296365601e-06 6.39340831722937e-07 6.3611093629270335e-15 0.0 0.0 173.8442600977033 -52.686854595496584 135.53179867398288 89.99999740243906 -1.0256118980609647e-06 -9.575880155644814e-07 -8.150171371250262e-15 -2.2621269777507063e-31 3.1805546814635168e-15
-0.0 83.9059829711914 0.0 -10.359237314820426 -15.127290950837596 19.444398493403515 -7.047293045822869 -22.26636022466352 -8.080857239501041 27.99679529010884 37.30308051173689 -10.799319947664891 -7.951386703658791e-16 7.951386703658791e-16 -1.9878466759146977e-16 26.62614010131671 24.221773007071246 -5.417013636859398 7.212476689133274 9.387137191682784 -4.69664790932047 3.1805546814635176e-15 3.1805546814635176e-15 -3.975693351829398e-16 -9.63343594430804 -12.731372133706055 -3.579732029128791 -1.8953479020322053e-06 -1.7050047155634144e-06 -26.612628249939682 -2.977893815944346 3.273449391734832 -15.604920240070793 -134.9479222517993 -64.47649123727001 -87.51361291141363 -90.00000488496867 1.171633958697436e-06 -3.6586041023206916e-07 1.5902773407317582e-15 -8.827812596100317e-32 -6.361109362927033e-15 172.11259847593527 -52.03440528949599 133.37654080900438 89.99999969419984 -3.857331940778925e-08 3.435685939830357e-07 5.963540027744094e-16 0.0 0.0
